<svg xmlns="http://www.w3.org/2000/svg" width="33" height="33" viewBox="0 0 33 33" fill="none">
<path d="M20.9688 8.25C20.9688 10.718 18.968 12.7188 16.5 12.7188C14.032 12.7188 12.0312 10.718 12.0312 8.25C12.0312 5.78197 14.032 3.78125 16.5 3.78125C18.968 3.78125 20.9688 5.78197 20.9688 8.25Z" stroke="white" stroke-width="1.5"/>
<path d="M25.0938 23.375C25.0938 24.854 24.2562 26.2903 22.7065 27.3971C21.1588 28.5028 18.9677 29.2188 16.5 29.2188C14.0323 29.2188 11.8412 28.5028 10.2935 27.3971C8.74378 26.2903 7.90625 24.854 7.90625 23.375C7.90625 21.896 8.74378 20.4597 10.2935 19.3528C11.8412 18.2472 14.0323 17.5312 16.5 17.5312C18.9677 17.5312 21.1588 18.2472 22.7065 19.3528C24.2562 20.4597 25.0938 21.896 25.0938 23.375Z" stroke="white" stroke-width="1.5"/>
</svg>