<svg xmlns="http://www.w3.org/2000/svg" width="33" height="33" viewBox="0 0 33 33" fill="none">
<path d="M12.375 24.75C13.5141 24.75 14.4375 25.6734 14.4375 26.8125C14.4375 27.9516 13.5141 28.875 12.375 28.875C11.2359 28.875 10.3125 27.9516 10.3125 26.8125C10.3125 25.6734 11.2359 24.75 12.375 24.75Z" stroke="white" stroke-width="1.5"/>
<path d="M22 24.75C23.1391 24.75 24.0625 25.6734 24.0625 26.8125C24.0625 27.9516 23.1391 28.875 22 28.875C20.8609 28.875 19.9375 27.9516 19.9375 26.8125C19.9375 25.6734 20.8609 24.75 22 24.75Z" stroke="white" stroke-width="1.5"/>
<path d="M7.90625 16.5C7.90625 14.5263 7.90844 13.1498 8.04808 12.1112C8.18372 11.1022 8.43184 10.5679 8.81239 10.1874C9.19293 9.80684 9.72722 9.55872 10.7362 9.42308C11.7748 9.28344 13.1513 9.28125 15.125 9.28125H19.1362C21.4281 9.28125 23.0363 9.28371 24.2316 9.45336C25.3983 9.61895 25.9812 9.92078 26.3662 10.3753C26.7512 10.8298 26.9532 11.4544 26.9247 12.6324C26.8956 13.8392 26.6335 15.426 26.2567 17.6868C25.978 19.359 25.7828 20.5189 25.524 21.3883C25.2735 22.2299 24.9967 22.6753 24.6304 22.9856C24.2639 23.2959 23.7793 23.4957 22.9078 23.6045C22.0077 23.7168 20.8317 23.7188 19.1362 23.7188H15.125C13.1513 23.7188 11.7748 23.7166 10.7362 23.577C9.72722 23.4413 9.19293 23.1932 8.81239 22.8126C8.43184 22.432 8.18372 21.8978 8.04808 20.8889C7.90844 19.8502 7.90625 18.4737 7.90625 16.5Z" stroke="white" stroke-width="1.5"/>
<path d="M7.90625 15.8125V6.875C7.90625 5.35622 6.67503 4.125 5.15625 4.125H3.4375" stroke="white" stroke-width="1.5" stroke-linecap="round"/>
</svg>