<svg xmlns="http://www.w3.org/2000/svg" width="20" height="20" viewBox="0 0 20 20" fill="none">
  <path d="M2.46298 9.94708C1.59396 8.43178 1.17436 7.19444 0.921347 5.9402C0.54715 4.0852 1.40349 2.27316 2.8221 1.11694C3.42166 0.62827 4.10896 0.795227 4.4635 1.43128L5.26391 2.86725C5.89835 4.00544 6.21556 4.57453 6.15264 5.17788C6.08972 5.78123 5.66192 6.27263 4.80631 7.25542L2.46298 9.94708ZM2.46298 9.94708C4.22196 13.0142 6.98235 15.7761 10.053 17.5371M10.053 17.5371C11.5683 18.4061 12.8056 18.8257 14.0599 19.0787C15.9149 19.4529 17.7269 18.5966 18.8831 17.178C19.3718 16.5784 19.2049 15.8911 18.5688 15.5366L17.1328 14.7362C15.9946 14.1017 15.4256 13.7845 14.8222 13.8474C14.2189 13.9104 13.7275 14.3382 12.7447 15.1938L10.053 17.5371Z" stroke="white" stroke-width="1.5" stroke-linejoin="round"/>
</svg>