<svg width="83" height="81" viewBox="0 0 83 81" fill="none" xmlns="http://www.w3.org/2000/svg">
  <path fill-rule="evenodd" clip-rule="evenodd" d="M72.8408 0.0773335C71.8608 -0.0586665 70.7278 -0.0156665 69.4388 0.209334C68.7358 0.337334 68.1038 0.466334 67.5398 0.596334C66.9758 0.727334 66.5728 0.861334 66.3318 1.00033C63.7178 2.33333 62.0268 4.20233 61.2568 6.60933C59.5318 11.0323 60.3158 16.1923 63.6108 22.0883C63.8528 22.5923 64.0808 23.0353 64.2938 23.4183C64.5058 23.8013 64.6598 24.0583 64.7518 24.1893C65.1318 24.7603 65.6158 25.5753 66.2028 26.6343C66.7908 27.6933 67.3258 28.6943 67.8098 29.6373C68.2928 30.5813 68.5648 31.1743 68.6228 31.4173C69.3588 32.7203 69.8488 33.9453 70.0918 35.0913C70.1948 35.5283 70.3098 36.0133 70.4368 36.5463C70.9098 38.0203 71.2558 39.6023 71.4748 41.2943C71.6938 42.9863 71.7528 44.5143 71.6488 45.8763C71.5568 46.7743 71.4948 47.4713 71.4598 47.9683C71.4248 48.4653 71.4168 48.8463 71.4348 49.1123C71.4518 49.3773 71.4988 49.5723 71.5728 49.6943C71.6478 49.8163 71.7548 49.9113 71.8928 49.9793C72.0658 50.0633 72.2778 50.1253 72.5318 50.1633C72.7848 50.2023 73.0268 50.1923 73.2568 50.1333C74.7868 49.7693 76.3258 47.7393 77.8738 44.0433C79.4198 40.3473 80.6988 35.6843 81.7098 30.0543C81.8018 29.5433 81.8818 29.0473 81.9508 28.5663C82.0188 28.0863 82.0828 27.7113 82.1408 27.4393C82.2788 26.7353 82.4098 25.4943 82.5358 23.7143C82.6618 21.9343 82.7468 20.2423 82.7928 18.6363C82.8728 16.5343 82.7568 14.2183 82.4448 11.6883C82.1328 9.15833 81.7528 7.39833 81.3038 6.40733C80.4268 4.65133 79.4658 3.43033 78.4188 2.74533C77.4978 2.08033 76.6678 1.54533 75.9318 1.14133C74.8488 0.569334 73.8188 0.214334 72.8408 0.0773335ZM78.7488 7.98233C79.3368 9.42633 79.7278 11.7173 79.9258 14.8543C80.1218 17.9923 80.0888 21.0593 79.8258 24.0563C79.6298 25.9313 79.4808 27.2923 79.3788 28.1413C79.2748 28.9903 79.1828 29.6303 79.1028 30.0623C79.0218 30.3663 78.9608 30.6573 78.9218 30.9373C78.8808 31.2173 78.8728 31.4063 78.8958 31.5033C78.8958 31.6313 78.8838 31.7763 78.8618 31.9363C78.8388 32.0963 78.8098 32.2313 78.7758 32.3433C78.6838 32.4703 78.5768 32.8243 78.4558 33.4073C78.3348 33.9903 78.1948 34.6503 78.0348 35.3853C77.8728 36.1203 77.6918 36.8983 77.4908 37.7203C77.2888 38.5433 77.1258 39.2023 76.9998 39.6963C76.7918 40.3653 76.5428 41.1103 76.2498 41.9303C75.9558 42.7503 75.6938 43.4473 75.4638 44.0193C75.2338 44.5923 75.0908 44.8863 75.0338 44.9003C74.9988 44.8833 74.9818 44.7783 74.9818 44.5863C74.9818 44.3933 75.0098 44.1613 75.0678 43.8893C75.2168 42.5923 75.0348 40.7683 74.5218 38.4183C74.0088 36.0693 73.3718 34.0003 72.6108 32.2143C72.4608 31.8413 72.3228 31.5173 72.1958 31.2403C72.0688 30.9643 71.9828 30.7933 71.9368 30.7283C71.6948 30.2243 71.3238 29.4643 70.8228 28.4473C70.3208 27.4313 69.7968 26.4143 69.2498 25.3963C68.7018 24.3793 68.2958 23.6343 68.0318 23.1613C65.8778 19.6233 64.4378 16.1973 63.7108 12.8863C63.5608 12.1283 63.4748 11.4753 63.4518 10.9283C63.4278 10.3813 63.4908 9.71733 63.6408 8.93333C63.7558 8.39033 63.8758 7.83833 64.0028 7.27933C64.1288 6.72033 64.2608 6.28233 64.3998 5.96433C64.7208 5.13733 65.1058 4.47933 65.5548 3.99233C66.0048 3.50633 66.7458 3.00233 67.7818 2.48133C68.5648 2.05233 69.3008 1.81233 69.9918 1.76533C70.6828 1.71833 71.5118 1.86733 72.4788 2.21333C72.8698 2.31933 73.2208 2.44833 73.5318 2.60033C75.8688 3.57433 77.6088 5.36833 78.7488 7.98233ZM47.2518 2.18933C46.3188 1.86133 45.2538 1.71533 44.0568 1.74933C42.8598 1.78333 41.8358 1.99933 40.9848 2.39633C38.8088 3.51433 37.9288 5.01033 38.3448 6.88433C38.6208 8.69033 40.4168 9.50533 43.7328 9.33133C45.0908 9.26833 46.0638 9.31633 46.6498 9.47533C47.2368 9.63433 47.6568 9.92633 47.9108 10.3503C48.1408 10.6773 48.3568 10.9763 48.5598 11.2463C48.7608 11.5163 48.9308 11.7173 49.0688 11.8493C49.2068 11.9813 49.2818 12.0073 49.2928 11.9263C49.3388 11.8633 49.4108 11.8133 49.5088 11.7753C49.6068 11.7373 49.7298 11.7133 49.8808 11.7003C50.0288 11.6883 50.1758 11.6633 50.3198 11.6263C50.4648 11.5913 50.5878 11.5333 50.6918 11.4553C50.7828 11.3293 50.8758 10.9463 50.9678 10.3053C51.0588 9.66533 51.1188 8.98833 51.1478 8.27333C51.1758 7.56033 51.1728 7.00133 51.1388 6.59933C50.9888 5.84133 50.6088 5.07633 49.9988 4.30633C49.3878 3.53633 48.6968 2.94033 47.9258 2.51933C47.7058 2.37033 47.4818 2.26033 47.2518 2.18933ZM47.3918 5.85533C47.6328 6.10233 47.8168 6.33233 47.9438 6.54333C48.0708 6.75633 48.1058 6.86933 48.0478 6.88433C47.9908 6.89933 47.6918 6.92433 47.1508 6.95833C46.6098 6.99333 45.9588 7.01633 45.1988 7.03033C44.3818 7.05833 43.7658 7.06733 43.3518 7.05633C42.9368 7.04633 42.6208 6.99833 42.4018 6.91233C42.1828 6.82733 41.9748 6.69333 41.7798 6.51133C41.3308 6.16333 41.0888 5.85133 41.0538 5.57833C41.0198 5.30433 41.1858 4.97933 41.5548 4.60233C41.7848 4.28733 42.0208 4.09233 42.2618 4.01733C42.5038 3.94333 42.9188 3.92133 43.5058 3.95233C44.3118 4.00433 45.0248 4.18233 45.6468 4.48733C46.2918 4.76033 46.8738 5.21633 47.3918 5.85533ZM19.6298 14.0343C18.4788 13.5563 17.1138 13.0163 15.5378 12.4153C9.42478 11.4763 4.76878 13.3933 1.57078 18.1653C0.856777 19.4003 0.393777 20.4373 0.181777 21.2753C-0.0312231 22.1133 -0.0572231 23.0003 0.104777 23.9353C0.184777 24.4033 0.331777 24.9253 0.545777 25.5003C0.758777 26.0763 0.991777 26.5763 1.24578 26.9993C1.79878 27.9133 2.67378 28.9313 3.87178 30.0523C5.06878 31.1753 6.11178 31.9313 6.99778 32.3233C7.27378 32.4583 7.73378 32.6943 8.37878 33.0313C9.02378 33.3693 9.68578 33.7473 10.3658 34.1653C13.7958 36.1453 17.2268 37.8053 20.6578 39.1433C21.7398 39.5873 23.3728 40.2263 25.5538 41.0593C27.7358 41.8933 29.8078 42.6833 31.7708 43.4303C33.7338 44.1773 34.9518 44.6463 35.4238 44.8343C36.9998 45.5643 38.6698 46.2313 40.4318 46.8373C41.9628 47.3743 43.3268 47.9143 44.5248 48.4573C45.1338 48.7133 45.6778 48.9473 46.1558 49.1603C46.6338 49.3733 46.9358 49.4893 47.0638 49.5083C47.2468 49.5123 47.5948 48.7303 48.1078 49.8593C48.6198 50.0883 49.2218 50.3723 49.9128 50.7113C51.0978 51.3353 52.6548 52.0763 54.5838 52.9353C56.5118 53.7943 58.2968 54.5613 59.9378 55.2363C61.5778 55.9113 62.5708 56.2693 62.9168 56.3103C63.3308 56.3843 63.6588 56.3203 63.9008 56.1173C64.1418 55.9153 64.4238 55.4643 64.7468 54.7653C65.1368 54.1003 65.0908 53.3603 64.6068 52.5453C64.1228 51.7293 62.9998 50.5053 61.2388 48.8713C60.4788 48.1133 59.8018 47.4503 59.2088 46.8813C58.6158 46.3133 58.2738 45.9633 58.1818 45.8323C57.3058 44.9753 56.5748 44.2743 55.9868 43.7293C55.3998 43.1843 55.0428 42.9033 54.9168 42.8833C54.8248 42.8813 54.6228 42.7073 54.3118 42.3623C54.0008 42.0173 53.6208 41.6063 53.1718 41.1293C52.4818 40.2773 51.5228 39.1973 50.2968 37.8903C49.0698 36.5823 48.0358 35.5093 47.1958 34.6683C47.0338 34.5043 46.7428 34.2123 46.3228 33.7913C45.9018 33.3713 45.4788 32.9073 45.0538 32.3983C44.5348 31.8873 43.9708 31.3443 43.3608 30.7663C42.7498 30.1893 42.2148 29.7023 41.7548 29.3053C41.3278 28.9253 40.8958 28.5213 40.4588 28.0923C40.0208 27.6643 39.6988 27.3343 39.4918 27.1043C39.3068 26.8433 39.1168 26.6223 38.9218 26.4393C38.7248 26.2583 38.5808 26.1663 38.4898 26.1643C38.4208 26.1303 38.2658 26.0223 38.0238 25.8393C37.7818 25.6563 37.5048 25.4243 37.1938 25.1443C36.7338 24.7473 36.1258 24.2463 35.3728 23.6413C34.6178 23.0363 33.9098 22.4973 33.2478 22.0223C32.5858 21.5483 32.2028 21.2853 32.0998 21.2353C32.0298 21.2013 31.8578 21.0843 31.5808 20.8843C31.3038 20.6843 30.9648 20.4443 30.5618 20.1603C30.1478 19.8293 29.4478 19.3573 28.4638 18.7473C27.4788 18.1363 26.4398 17.5213 25.3458 16.8993C24.4708 16.4283 23.6648 15.9893 22.9288 15.5863C21.8798 15.0303 20.7808 14.5123 19.6298 14.0343ZM23.9398 19.7433C24.8898 20.3373 26.2228 21.2263 27.9378 22.4083C29.9418 23.7753 31.4788 24.8813 32.5498 25.7273C33.6208 26.5733 34.5708 27.3923 35.3998 28.1833C35.7688 28.5793 36.1218 28.9133 36.4618 29.1853C36.8018 29.4593 37.0518 29.6143 37.2128 29.6503C37.4088 29.7033 37.8268 30.0153 38.4658 30.5853C39.1038 31.1543 39.8438 31.8603 40.6848 32.7003C42.1478 34.2303 43.6668 35.6813 45.2458 37.0543C47.6398 39.1693 49.7418 41.3343 51.5498 43.5473C52.2868 44.4653 52.9978 45.3383 53.6838 46.1663C54.3688 46.9943 54.8898 47.5823 55.2468 47.9273L56.4388 49.0903L54.9878 48.3793C53.6978 47.8333 52.5518 47.3783 51.5508 47.0163C50.6638 46.7543 49.6798 46.4003 48.5988 45.9563C40.4128 43.4883 32.6278 40.6813 25.2418 37.5333C17.8558 34.3873 12.5278 31.7773 9.25878 29.7043C8.12978 29.1943 6.94978 28.2103 5.71778 26.7493C4.48578 25.2893 3.70778 24.0093 3.38578 22.9083C2.88978 21.3383 3.34978 19.8073 4.76478 18.3163C5.43178 17.5303 6.24078 16.9513 7.19078 16.5813C8.13978 16.2113 9.43678 15.9583 11.0838 15.8223C12.4418 15.6313 13.6588 15.6493 14.7358 15.8773C15.8118 16.1053 17.3688 16.6533 19.4068 17.5233C20.1438 17.7983 20.7878 18.0713 21.3408 18.3413C22.1238 18.6833 22.9898 19.1493 23.9398 19.7433ZM57.8598 62.7623C55.5218 61.7893 51.8438 61.1443 46.8258 60.8263C45.8008 60.7533 44.9168 60.6943 44.1748 60.6523C43.4328 60.6103 43.0148 60.5883 42.9238 60.5853C42.8308 60.5833 42.6778 60.5833 42.4658 60.5863C42.2528 60.5893 42.0368 60.5793 41.8178 60.5583C39.7108 60.4253 36.8538 60.4383 33.2448 60.5983C29.6368 60.7583 26.6748 60.9773 24.3618 61.2573C17.9618 62.1923 13.2308 63.4723 10.1698 65.0983C6.15278 67.3283 4.07678 70.3363 3.94078 74.1243C3.92878 74.5903 3.93178 74.9553 3.94978 75.2213C3.96578 75.4863 4.03278 75.7333 4.14878 75.9603C4.26378 76.1883 4.43578 76.4663 4.66678 76.7923C5.72578 78.4253 7.10178 79.5273 8.79478 80.1003C10.5208 80.6883 12.1298 80.9413 13.6208 80.8573C15.1108 80.7743 16.8288 80.3313 18.7748 79.5283C19.9938 79.0123 21.3748 78.3713 22.9178 77.6063C24.4598 76.8423 25.6918 76.1493 26.6128 75.5293C27.1178 75.2213 27.9928 74.7283 29.2358 74.0523C30.4788 73.3763 31.7998 72.6743 33.1978 71.9463C34.5958 71.2173 35.7608 70.6323 36.6938 70.1893C37.4068 69.8543 38.0718 69.5693 38.6878 69.3353C39.3028 69.1023 40.0658 68.8443 40.9758 68.5613C41.8848 68.2783 43.1278 67.9233 44.7048 67.4973C46.5458 67.0283 47.9878 66.6743 49.0288 66.4353C50.0708 66.1963 51.0978 66.0253 52.1118 65.9213C53.1238 65.8183 54.5338 65.7163 56.3408 65.6163C56.9748 65.5843 57.5038 65.5333 57.9298 65.4633C58.3558 65.3933 58.6028 65.3113 58.6718 65.2163C58.7178 65.1533 58.7528 65.0103 58.7758 64.7853C58.7988 64.5613 58.8098 64.3203 58.8108 64.0633C58.7748 63.7893 58.7238 63.5713 58.6538 63.4093C58.5848 63.2463 58.4758 63.1073 58.3258 62.9913C58.2228 62.9403 58.0668 62.8643 57.8598 62.7623ZM51.4368 63.6633C50.4928 63.6733 48.9038 63.9553 46.6708 64.5093C44.4378 65.0643 42.1678 65.7193 39.8598 66.4733C37.5528 67.2273 35.7598 67.9333 34.4838 68.5933C34.2068 68.7143 33.7688 68.9283 33.1708 69.2353C32.5718 69.5413 31.9328 69.8713 31.2548 70.2233C30.5758 70.5763 29.7448 71.0253 28.7608 71.5713C27.7758 72.1173 26.8698 72.6363 26.0408 73.1303C22.8648 75.3003 19.4468 76.9023 15.7868 77.9353C14.4748 78.3213 13.3318 78.4903 12.3598 78.4413C11.3868 78.3933 10.3418 78.1383 9.22478 77.6763C6.59978 76.6483 5.62078 74.9693 6.28778 72.6403C6.50578 71.7623 6.85978 71.0043 7.34878 70.3653C7.83778 69.7283 8.53678 69.0743 9.44578 68.4053C9.96378 68.0173 10.4518 67.6673 10.9128 67.3573C11.3728 67.0483 11.7128 66.8403 11.9318 66.7323C13.4048 66.1273 15.3728 65.5173 17.8358 64.9033C20.2988 64.2893 22.8428 63.7903 25.4678 63.4053C26.5038 63.2703 28.1098 63.1253 30.2848 62.9713C32.4608 62.8163 34.5668 62.7233 36.6038 62.6933C37.9388 62.6633 39.7328 62.6953 41.9828 62.7913C44.2328 62.8873 46.3278 63.0033 48.2678 63.1393C50.2068 63.2763 51.3438 63.4043 51.6788 63.5253C51.8858 63.6263 51.8048 63.6733 51.4368 63.6633ZM8.91878 44.2493C6.13278 43.6983 3.84178 44.2033 2.04678 45.7653C1.49478 46.2663 1.02278 46.8813 0.631777 47.6093C0.239777 48.3393 0.056777 48.9453 0.080777 49.4273C0.321777 50.9593 1.91078 51.9943 4.84678 52.5333C5.58378 52.6803 6.41278 52.7653 7.33378 52.7883C8.25378 52.8113 9.69378 52.7663 11.6508 52.6543C12.4328 52.6093 13.0978 52.6143 13.6448 52.6673C14.1908 52.7213 14.8038 52.8283 15.4838 52.9903C16.4278 53.2383 17.1238 53.3433 17.5728 53.3063C18.0218 53.2693 18.3778 53.0373 18.6428 52.6103C18.8508 52.3263 18.8618 51.9893 18.6778 51.5993C18.4928 51.2103 18.0258 50.5953 17.2788 49.7573C15.5508 47.7553 13.8458 46.2993 12.1658 45.3903C11.1168 44.8343 10.0358 44.4543 8.91878 44.2493ZM12.0628 48.4233C12.3618 48.6563 12.6468 48.8603 12.9178 49.0343C13.1878 49.2103 13.3928 49.3313 13.5308 49.3993C14.2218 49.7373 13.4448 49.9353 11.2008 49.9923C9.24278 50.1043 7.72578 50.1113 6.64978 50.0123C5.57378 49.9133 4.70778 49.7023 4.05178 49.3813C3.67178 49.1953 3.35278 49.0393 3.09378 48.9123C2.83478 48.7853 2.68178 48.6893 2.63578 48.6233C2.51978 48.5243 2.53178 48.3473 2.66978 48.0943C2.80778 47.8403 3.06078 47.5903 3.42878 47.3423C5.28078 46.1513 7.57778 46.1843 10.3188 47.4403C10.9278 47.6963 11.5098 48.0243 12.0628 48.4233Z" fill="white"/>
</svg>