<svg xmlns="http://www.w3.org/2000/svg" width="145" height="106" viewBox="0 0 145 106" fill="none">
  <g clip-path="url(#clip0_46_1498)">
    <path d="M141.83 68.54H42.5797C41.0897 68.54 39.8896 69.74 39.8896 71.23C39.8896 72.72 41.0897 73.92 42.5797 73.92H141.83C143.32 73.92 144.52 72.72 144.52 71.23C144.52 69.74 143.32 68.54 141.83 68.54Z" fill="white"/>
    <path d="M141.84 55.79H91.5601C90.0701 55.79 88.8701 56.99 88.8701 58.48C88.8701 59.97 90.0701 61.17 91.5601 61.17H141.84C143.33 61.17 144.53 59.97 144.53 58.48C144.53 56.99 143.33 55.79 141.84 55.79Z" fill="white"/>
    <path d="M63.5602 58.48C63.5602 56.99 62.3602 55.79 60.8702 55.79H22.6402C21.1502 55.79 19.9502 56.99 19.9502 58.48C19.9502 59.97 21.1502 61.17 22.6402 61.17H60.8702C62.3602 61.17 63.5602 59.97 63.5602 58.48Z" fill="white"/>
    <path d="M75.8999 21.4199H68.1099C66.6199 21.4199 65.4199 22.6199 65.4199 24.1099C65.4199 25.5999 66.6199 26.7999 68.1099 26.7999H75.8999C77.3899 26.7999 78.5899 25.5999 78.5899 24.1099C78.5899 22.6199 77.3899 21.4199 75.8999 21.4199Z" fill="white"/>
    <path d="M97.3198 21.4199H89.5298C88.0398 21.4199 86.8398 22.6199 86.8398 24.1099C86.8398 25.5999 88.0398 26.7999 89.5298 26.7999H97.3198C98.8098 26.7999 100.01 25.5999 100.01 24.1099C100.01 22.6199 98.8098 21.4199 97.3198 21.4199Z" fill="white"/>
    <path d="M118.75 21.4199H110.96C109.47 21.4199 108.27 22.6199 108.27 24.1099C108.27 25.5999 109.47 26.7999 110.96 26.7999H118.75C120.24 26.7999 121.44 25.5999 121.44 24.1099C121.44 22.6199 120.24 21.4199 118.75 21.4199Z" fill="white"/>
    <path d="M89.2999 13.72C89.2999 12.23 88.0999 11.03 86.6099 11.03H78.8199C77.3299 11.03 76.1299 12.23 76.1299 13.72C76.1299 15.21 77.3299 16.41 78.8199 16.41H86.6099C88.0999 16.41 89.2999 15.21 89.2999 13.72Z" fill="white"/>
    <path d="M110.72 13.72C110.72 12.23 109.52 11.03 108.03 11.03H100.24C98.7498 11.03 97.5498 12.23 97.5498 13.72C97.5498 15.21 98.7498 16.41 100.24 16.41H108.03C109.52 16.41 110.72 15.21 110.72 13.72Z" fill="white"/>
    <path d="M140.49 79.96H46.3697C44.8797 79.96 43.6797 81.16 43.6797 82.65V87.96C43.6797 97.58 51.4997 105.4 61.1197 105.4H125.74C135.36 105.4 143.18 97.58 143.18 87.96V82.65C143.18 81.16 141.98 79.96 140.49 79.96ZM137.8 87.96C137.8 94.61 132.39 100.02 125.74 100.02H61.1197C54.4697 100.02 49.0597 94.61 49.0597 87.96V85.34H137.81V87.96H137.8Z" fill="white"/>
    <path d="M65.54 57.12C65.54 63.05 70.36 67.87 76.29 67.87C82.22 67.87 87.03 63.05 87.03 57.12V48.38H141.84C143.33 48.38 144.53 47.18 144.53 45.69C144.53 44.2 143.33 43 141.84 43H84.34C82.85 43 81.65 44.2 81.65 45.69V57.12C81.65 60.08 79.24 62.49 76.28 62.49C73.32 62.49 70.91 60.08 70.91 57.12V45.69C70.91 44.2 69.71 43 68.22 43H2.69C1.2 43 0 44.2 0 45.69C0 47.18 1.2 48.38 2.69 48.38H65.54V57.12Z" fill="white"/>
    <path d="M46.3697 36.83H140.49C141.98 36.83 143.18 35.63 143.18 34.14V25.96C143.18 11.64 131.53 0 117.22 0H69.6397C55.3197 0 43.6797 11.65 43.6797 25.96V34.14C43.6797 35.63 44.8797 36.83 46.3697 36.83ZM49.0597 25.96C49.0597 14.61 58.2897 5.38 69.6397 5.38H117.22C128.57 5.38 137.8 14.61 137.8 25.96V31.45H49.0597V25.96Z" fill="white"/>
  </g>
  <defs>
    <clipPath id="clip0_46_1498">
      <rect width="144.53" height="105.41" fill="white"/>
    </clipPath>
  </defs>
</svg>